<svg width="16" height="15" viewBox="0 0 16 15" fill="none" xmlns="http://www.w3.org/2000/svg">
<g clip-path="url(#clip0_61_2556)">
<path d="M8.80278 0.5C8.65556 0.194444 8.34444 0 8.00278 0C7.66111 0 7.35278 0.194444 7.20278 0.5L5.41667 4.175L1.42778 4.76389C1.09444 4.81389 0.816667 5.04722 0.713889 5.36667C0.611111 5.68611 0.694444 6.03889 0.933333 6.275L3.82778 9.13889L3.14444 13.1861C3.08889 13.5194 3.22778 13.8583 3.50278 14.0556C3.77778 14.2528 4.14167 14.2778 4.44167 14.1194L8.00556 12.2167L11.5694 14.1194C11.8694 14.2778 12.2333 14.2556 12.5083 14.0556C12.7833 13.8556 12.9222 13.5194 12.8667 13.1861L12.1806 9.13889L15.075 6.275C15.3139 6.03889 15.4 5.68611 15.2944 5.36667C15.1889 5.04722 14.9139 4.81389 14.5806 4.76389L10.5889 4.175L8.80278 0.5Z" fill="#2D77FF"/>
</g>
<defs>
<clipPath id="clip0_61_2556">
<rect width="16" height="14.2222" fill="white"/>
</clipPath>
</defs>
</svg>
