<svg width="15" height="24" viewBox="0 0 15 24" fill="none" xmlns="http://www.w3.org/2000/svg">
<path d="M3.4998 7.19957C3.4998 5.43457 4.9348 3.99956 6.6998 3.99956H8.2998C10.0648 3.99956 11.4998 5.43457 11.4998 7.19957V7.37957C11.4998 8.46957 10.9448 9.48457 10.0298 10.0696L7.9198 11.4246C6.6598 12.2346 5.8998 13.6296 5.8998 15.1246V15.1996C5.8998 16.0846 6.6148 16.7996 7.4998 16.7996C8.3848 16.7996 9.0998 16.0846 9.0998 15.1996V15.1296C9.0998 14.7196 9.3098 14.3396 9.6498 14.1196L11.7598 12.7646C13.5898 11.5846 14.6998 9.55957 14.6998 7.37957V7.19957C14.6998 3.66456 11.8348 0.799561 8.2998 0.799561H6.6998C3.1648 0.799561 0.299805 3.66456 0.299805 7.19957C0.299805 8.08457 1.0148 8.79957 1.8998 8.79957C2.7848 8.79957 3.4998 8.08457 3.4998 7.19957ZM7.4998 23.1996C8.03024 23.1996 8.53895 22.9889 8.91402 22.6138C9.28909 22.2387 9.4998 21.73 9.4998 21.1996C9.4998 20.6692 9.28909 20.1604 8.91402 19.7854C8.53895 19.4103 8.03024 19.1996 7.4998 19.1996C6.96937 19.1996 6.46066 19.4103 6.08559 19.7854C5.71052 20.1604 5.4998 20.6692 5.4998 21.1996C5.4998 21.73 5.71052 22.2387 6.08559 22.6138C6.46066 22.9889 6.96937 23.1996 7.4998 23.1996Z" fill="#2D77FF"/>
</svg>
